# Blender v2.79 (sub 0) OBJ File: 'untitled.blend'
# www.blender.org
mtllib untitled.mtl
o Куб.002
v -0.750000 -0.250000 1.729261
v -0.750000 0.500000 1.729261
v -0.750000 -0.250000 0.729261
v -0.750000 0.500000 0.729261
v 0.750000 -0.250000 1.729261
v 0.750000 0.500000 1.729261
v 0.750000 -0.250000 0.729261
v 0.750000 0.500000 0.729261
vn -1.0000 0.0000 0.0000
vn 0.0000 0.0000 -1.0000
vn 1.0000 0.0000 0.0000
vn 0.0000 0.0000 1.0000
vn 0.0000 -1.0000 0.0000
vn 0.0000 1.0000 0.0000
usemtl None
s off
f 1//1 2//1 4//1 3//1
f 3//2 4//2 8//2 7//2
f 7//3 8//3 6//3 5//3
f 5//4 6//4 2//4 1//4
f 3//5 7//5 5//5 1//5
f 8//6 4//6 2//6 6//6
o Куб
v -1.249452 -0.249726 -0.750274
v -1.250000 0.250274 -0.749726
v -1.249452 -0.249726 -1.249726
v -1.249452 0.249726 -1.249726
v -0.750548 -0.249726 -0.750274
v -0.750000 0.250274 -0.749726
v -0.750548 -0.249726 -1.249726
v -0.750548 0.249726 -1.249726
v -1.249726 0.250000 -0.999726
v -1.000000 0.249726 -1.249726
v -0.750274 0.250000 -0.999726
v -1.000000 0.250274 -0.749726
v -1.000000 0.250000 -0.999726
vn -1.0000 -0.0005 -0.0005
vn 0.0000 0.0000 -1.0000
vn 1.0000 -0.0005 -0.0005
vn 0.0000 -0.0011 1.0000
vn 0.0000 -1.0000 0.0000
vn 0.0000 1.0000 -0.0011
usemtl None
s off
f 9//7 10//7 17//7 12//7 11//7
f 11//8 12//8 18//8 16//8 15//8
f 15//9 16//9 19//9 14//9 13//9
f 13//10 14//10 20//10 10//10 9//10
f 11//11 15//11 13//11 9//11
f 21//12 17//12 10//12 20//12
f 19//12 21//12 20//12 14//12
f 16//12 18//12 21//12 19//12
f 18//12 12//12 17//12 21//12
o Куб.001
v 0.750548 -0.249726 -0.750274
v 0.750000 0.250274 -0.749726
v 0.750548 -0.249726 -1.249726
v 0.750548 0.249726 -1.249726
v 1.249452 -0.249726 -0.750274
v 1.250000 0.250274 -0.749726
v 1.249452 -0.249726 -1.249726
v 1.249452 0.249726 -1.249726
v 0.750274 0.250000 -0.999726
v 1.000000 0.249726 -1.249726
v 1.249726 0.250000 -0.999726
v 1.000000 0.250274 -0.749726
v 1.000000 0.250000 -0.999726
vn -1.0000 -0.0005 -0.0005
vn 0.0000 0.0000 -1.0000
vn 1.0000 -0.0005 -0.0005
vn 0.0000 -0.0011 1.0000
vn 0.0000 -1.0000 0.0000
vn 0.0000 1.0000 -0.0011
usemtl None
s off
f 22//13 23//13 30//13 25//13 24//13
f 24//14 25//14 31//14 29//14 28//14
f 28//15 29//15 32//15 27//15 26//15
f 26//16 27//16 33//16 23//16 22//16
f 24//17 28//17 26//17 22//17
f 34//18 30//18 23//18 33//18
f 32//18 34//18 33//18 27//18
f 29//18 31//18 34//18 32//18
f 31//18 25//18 30//18 34//18
o Куб.003
v -1.000000 -0.250000 0.750000
v -1.000000 0.750000 0.750000
v -1.000000 -0.250000 -0.750000
v -1.000000 0.750000 -0.750000
v 1.000000 -0.250000 0.750000
v 1.000000 0.750000 0.750000
v 1.000000 -0.250000 -0.750000
v 1.000000 0.750000 -0.750000
vn -1.0000 0.0000 0.0000
vn 0.0000 0.0000 -1.0000
vn 1.0000 0.0000 0.0000
vn 0.0000 0.0000 1.0000
vn 0.0000 -1.0000 0.0000
vn 0.0000 1.0000 0.0000
usemtl None
s off
f 35//19 36//19 38//19 37//19
f 37//20 38//20 42//20 41//20
f 41//21 42//21 40//21 39//21
f 39//22 40//22 36//22 35//22
f 37//23 41//23 39//23 35//23
f 42//24 38//24 36//24 40//24
o Куб.004
v -0.500000 -0.250000 2.613109
v -0.500000 0.250000 2.613109
v -0.500000 -0.250000 1.613109
v -0.500000 0.250000 1.613109
v 0.500000 -0.250000 2.613109
v 0.500000 0.250000 2.613109
v 0.500000 -0.250000 1.613109
v 0.500000 0.250000 1.613109
vn -1.0000 0.0000 0.0000
vn 0.0000 0.0000 -1.0000
vn 1.0000 0.0000 0.0000
vn 0.0000 0.0000 1.0000
vn 0.0000 -1.0000 0.0000
vn 0.0000 1.0000 0.0000
usemtl None
s off
f 43//25 44//25 46//25 45//25
f 45//26 46//26 50//26 49//26
f 49//27 50//27 48//27 47//27
f 47//28 48//28 44//28 43//28
f 45//29 49//29 47//29 43//29
f 50//30 46//30 44//30 48//30
o Куб.005
v -0.300000 0.348561 -0.549846
v -0.300659 0.848561 -0.549298
v -0.300000 0.348561 -1.049298
v -0.300000 0.848013 -1.049298
v 0.300000 0.348561 -0.549846
v 0.300659 0.848561 -0.549298
v 0.300000 0.348561 -1.049298
v 0.300000 0.848013 -1.049298
v -0.300330 0.848287 -0.799298
v 0.000000 0.848013 -1.049298
v 0.300330 0.848287 -0.799298
v 0.000000 0.848561 -0.549298
v 0.000000 0.848287 -0.799298
vn -1.0000 -0.0007 -0.0007
vn 0.0000 0.0000 -1.0000
vn 1.0000 -0.0007 -0.0007
vn 0.0000 -0.0011 1.0000
vn 0.0000 -1.0000 0.0000
vn 0.0000 1.0000 -0.0011
usemtl None
s off
f 51//31 52//31 59//31 54//31 53//31
f 53//32 54//32 60//32 58//32 57//32
f 57//33 58//33 61//33 56//33 55//33
f 55//34 56//34 62//34 52//34 51//34
f 53//35 57//35 55//35 51//35
f 63//36 59//36 52//36 62//36
f 61//36 63//36 62//36 56//36
f 58//36 60//36 63//36 61//36
f 60//36 54//36 59//36 63//36
